<svg width="889" height="168" xmlns="http://www.w3.org/2000/svg" xmlns:xlink="http://www.w3.org/1999/xlink" overflow="hidden"><defs><clipPath id="clip0"><path d="M44 107 933 107 933 275 44 275Z" fill-rule="evenodd" clip-rule="evenodd"/></clipPath></defs><g clip-path="url(#clip0)" transform="translate(-44 -107)"><text fill="#843C0C" font-family="Calibri,Calibri_MSFontService,sans-serif" font-weight="700" font-size="18" transform="translate(60.8329 177)">GSE59088_MIX_VAL_M_YNG_SED_LEA_HLY_H05</text><path d="M0.432459-0.250956 11.1231 18.1717 10.2582 18.6736-0.432459 0.250956ZM13.4811 15.2618 14.0367 24.1888 6.56177 19.2771Z" fill="#ED7D31" transform="matrix(1 0 0 -1 87.5001 204.689)"/><text font-family="Calibri,Calibri_MSFontService,sans-serif" font-weight="400" font-size="11" transform="translate(54.4326 219)">GEO accession <tspan x="14.7533" y="13">number</tspan><tspan x="47.5113" y="-96">Mixed concentric and </tspan><tspan x="56.0113" y="-83">eccentric exercise</tspan><tspan x="113.09" y="0">Vastus </tspan><tspan x="110.17" y="13">lateralis</tspan><tspan x="167.918" y="-83">Male</tspan><tspan x="189.255" y="0">Young</tspan><tspan x="184.501" y="13">age &lt; 35</tspan><tspan x="213.737" y="-83">Sedentary</tspan><tspan x="267.917" y="0">Lean</tspan><tspan x="310.448" y="-83">Healthy</tspan><tspan x="331.727" y="0">Biopsy collected </tspan><tspan x="350.307" y="13">5h after </tspan><tspan x="349.727" y="27">exercise</tspan></text><path d="M0.437088-0.242805 10.6368 18.1182 9.76257 18.6038-0.437088 0.242805ZM13.0489 15.253 13.4371 24.1889 6.05548 19.1379Z" fill="#ED7D31" transform="matrix(1 0 0 -1 182.5 204.689)"/><path d="M0.495879-0.0640645 2.76672 17.513 1.77497 17.6411-0.495879 0.0640645ZM6.06704 15.7422 3.12504 24.1888-1.86702 16.7672Z" fill="#ED7D31" transform="matrix(1 0 0 -1 258.5 204.689)"/><path d="M0.48462-0.123057 4.98601 17.6042 4.01677 17.8503-0.48462 0.123057ZM8.0502 15.4505 6.14215 24.1889 0.296275 17.4194Z" fill="#ED7D31" transform="matrix(1 0 0 -1 333.5 204.689)"/><path d="M422.175 204.898 413.832 186.765 414.741 186.347 423.083 204.48ZM411.21 189.44 411.5 180.5 418.478 186.096Z" fill="#ED7D31"/><path d="M0.450712-0.216468 4.62043 8.46537 3.719 8.89831-0.450712 0.216468ZM7.19817 5.7482 7.05596 14.6913-0.01323 9.21169Z" fill="#ED7D31" transform="matrix(-1 -8.74228e-08 -8.74228e-08 1 382.556 144.5)"/><path d="M291.941 144.265 296.627 153.071 295.744 153.541 291.059 144.735ZM299.091 150.25 299.317 159.191 292.028 154.008Z" fill="#ED7D31"/><path d="M0.467134-0.178285 3.69704 8.28459 2.76277 8.64116-0.467134 0.178285ZM6.49156 5.79091 5.60703 14.6913-0.982594 8.64346Z" fill="#ED7D31" transform="matrix(-1 -8.74228e-08 -8.74228e-08 1 234.107 144.5)"/><path d="M150.903 144.204 157.765 153.526 156.96 154.119 150.097 144.796ZM159.793 150.377 161.315 159.191 153.351 155.12Z" fill="#ED7D31"/><text fill="#203864" font-family="Calibri,Calibri_MSFontService,sans-serif" font-weight="400" font-size="18" transform="translate(511.247 197)">GSE40551_VAL_M_MDL_SED_OBE_IGT_W08_B48</text><path d="M553.31 223.944 548.828 208.052 549.791 207.781 554.273 223.672ZM545.822 210.285 547.5 201.5 553.521 208.114Z" fill="#4472C4"/><text font-family="Calibri,Calibri_MSFontService,sans-serif" font-weight="400" font-size="11" transform="translate(520.364 238)">GEO accession <tspan x="14.7534" y="13">number</tspan><tspan x="62.8019" y="-97">Vastus </tspan><tspan x="59.882" y="-84">lateralis</tspan><tspan x="100.427" y="0">Male</tspan><tspan x="133.108" y="-97">Middle </tspan><tspan x="126.941" y="-84">age 35</tspan>-<tspan x="159.775" y="-84">60</tspan><tspan x="171.312" y="0">Sedentary</tspan><tspan x="214.43" y="-84">Obese</tspan><tspan x="251.613" y="0">Impaired </tspan><tspan x="254.947" y="13">glucose </tspan><tspan x="250.533" y="27">tolerance</tspan><tspan x="328.413" y="0">Biopsy collected </tspan><tspan x="344.246" y="13">48h </tspan><tspan x="363.579" y="13">after </tspan><tspan x="346.413" y="27">exercise</tspan></text><path d="M598.984 162.375 602.047 174.189 601.079 174.44 598.016 162.626ZM605.101 172.02 603.237 180.768 597.357 174.028Z" fill="#4472C4"/><path d="M0.494155-0.0762309 2.2958 11.6027 1.30749 11.7551-0.494155 0.0762309ZM5.5516 9.75129 2.81806 18.2676-2.35487 10.971Z" fill="#4472C4" transform="matrix(-1 -8.74228e-08 -8.74228e-08 1 669.318 162.5)"/><path d="M0.49285-0.0842524 2.49232 11.612 1.50662 11.7805-0.49285 0.0842524ZM5.7176 9.70799 3.12283 18.2676-2.16801 11.056Z" fill="#4472C4" transform="matrix(-1 -8.74228e-08 -8.74228e-08 1 749.623 162.5)"/><path d="M885.098 224.142 869.574 206.801 870.319 206.134 885.843 223.475ZM867.856 210.129 865.5 201.5 873.816 204.793Z" fill="#4472C4"/><path d="M792.284 223.999 785.591 207.85 786.515 207.467 793.208 223.617ZM782.868 210.422 783.5 201.5 790.258 207.359Z" fill="#4472C4"/><path d="M714.065 223.919 710.485 208.112 711.46 207.892 715.04 223.698ZM707.366 210.186 709.5 201.5 715.168 208.419Z" fill="#4472C4"/><path d="M0.496057-0.0626667 2.47866 15.6313 1.48655 15.7566-0.496057 0.0626667ZM5.78395 13.8698 2.81816 22.308-2.15296 14.8724Z" fill="#4472C4" transform="matrix(1 0 0 -1 632.5 223.808)"/><text font-family="Calibri,Calibri_MSFontService,sans-serif" font-weight="400" font-size="11" transform="translate(807.768 141)">8 weeks of <tspan x="6.58667" y="13">training</tspan></text><path d="M0.416953-0.275953 8.82766 12.4323 7.99375 12.9842-0.416953 0.275953ZM11.0105 9.38874 12.0901 18.2676 4.33921 13.804Z" fill="#4472C4" transform="matrix(-1 -8.74228e-08 -8.74228e-08 1 832.59 162.5)"/></g></svg>